<?xml version="1.0" encoding="UTF-8" standalone="no"?>
<!-- Generator: Adobe Illustrator 24.0.3, SVG Export Plug-In . SVG Version: 6.00 Build 0)  -->

<svg
   version="1.1"
   id="Layer_1"
   x="0px"
   y="0px"
   viewBox="0 0 439.29999 134.03923"
   xml:space="preserve"
   sodipodi:docname="logo_dark.svg"
   inkscape:version="1.4 (e7c3feb100, 2024-10-09)"
   width="439.29999"
   height="134.03923"
   xmlns:inkscape="http://www.inkscape.org/namespaces/inkscape"
   xmlns:sodipodi="http://sodipodi.sourceforge.net/DTD/sodipodi-0.dtd"
   xmlns="http://www.w3.org/2000/svg"
   xmlns:svg="http://www.w3.org/2000/svg"><defs
   id="defs8" /><sodipodi:namedview
   id="namedview8"
   pagecolor="#ffffff"
   bordercolor="#000000"
   borderopacity="0.25"
   inkscape:showpageshadow="2"
   inkscape:pageopacity="0.0"
   inkscape:pagecheckerboard="0"
   inkscape:deskcolor="#d1d1d1"
   inkscape:zoom="0.6918239"
   inkscape:cx="219.70909"
   inkscape:cy="67.213636"
   inkscape:window-width="1920"
   inkscape:window-height="953"
   inkscape:window-x="0"
   inkscape:window-y="32"
   inkscape:window-maximized="1"
   inkscape:current-layer="Layer_1" />
<style
   type="text/css"
   id="style1">
	.st0{fill:#020817;}
	.st1{fill:#009994;}
	.st2{fill:#33A999;}
	.st3{fill:#3B82F6;}
	.st4{fill:#4C64AB;}
	.st5{fill:#4D72AB;}
	.st6{fill:#00AFAB;}
	.st7{fill:#2066EA;}
	.st8{fill:#FFFFFF;}
	.st9{font-family:'Montserrat-Medium';}
	.st10{font-size:20.6486px;}
</style>




<g
   id="g8"
   transform="translate(-247.5,-200.66077)">
	<g
   id="g2">
		<path
   class="st1"
   d="M 309,275 Z"
   id="path1"
   style="fill:#009994" />
		<path
   class="st6"
   d="m 247.5,334.5 c 9.9,0 19.7,0 29.5,0 5.1,0 10.1,0 15.1,0 1.1,0 2.2,-0.1 3.4,-0.1 2.1,0 4.1,0.1 6.1,0.1 6.5,0.1 13.3,0.3 19.7,-1.2 11,-2.7 20.4,-9.9 25.2,-19.2 V 200.8 c -13,-0.1 -26.1,0 -38.8,0.2 l -8.4,0.1 c -3.3,0.2 -6.7,0.1 -10,0 -7,-0.2 -14.2,-0.4 -20.8,2.1 -9.9,3.6 -17.8,12.4 -20.2,22.6 -0.9,5.5 -0.8,11.3 -0.7,17 0.1,3.2 0.1,6.6 0,9.9 0,4.9 0,9.8 0,14.7 0,3.4 0,6.7 0,10.1 0,20.2 -0.1,38.8 -0.1,57 z m 3.4,-62 c 0,-10.2 0,-20.8 0.1,-31.1 0.1,-1.7 0,-3.4 0,-5 -0.1,-4 -0.2,-8.1 1.1,-12 1.3,-3.9 3.2,-7.4 5.8,-10.3 3.6,-4.1 8.1,-6.9 13.6,-8.3 1.9,-0.6 3.9,-1 5.9,-1.2 0.8,-0.1 1.6,-0.1 2.4,-0.1 h 0.6 c 3.3,-0.2 6.6,-0.1 9.9,-0.1 2,0 3.9,0.1 5.9,0 h 0.3 c 8.2,0 16.3,0 24.4,0 l 19.5,-0.1 h 0.2 c 0.2,0 0.4,0 0.6,0 h 0.2 c 0.4,0 0.7,0.1 1,0.3 h 0.9 v 24.2 c 0,0.9 0,1.8 0,2.8 0,0.2 0,0.4 -0.1,0.7 v 7.6 c 0.1,0.3 0.1,0.6 0.1,0.9 0.1,8.9 0.1,17.9 0.2,26.8 0,0.2 0,0.8 -0.5,1.3 -0.5,0.5 -1.1,0.5 -1.3,0.5 h -0.3 c -5.3,-0.1 -10.7,-0.1 -16,-0.1 h -1.6 c -3.1,0 -6.2,0 -9.4,0 h -6.3 c -5.2,0 -10.4,-0.1 -15.5,-0.1 H 289 c 0,1 0,2 0,3 v 3.1 c 0,1.2 0,2.4 0,3.7 h 8.8 c 3.1,0 6.1,0 9.2,0 0,-0.7 0,-1.3 0,-2 0,-0.5 0,-1 0,-1.5 0,-0.6 0.2,-1 0.5,-1.2 0.5,-0.4 1,-0.4 1.3,-0.4 0.1,0 0.2,0 0.3,0 2.4,0 4.7,0 7,0 8.5,0 16.9,0.1 25.4,0.1 0.6,0 1.2,0.1 1.6,0.6 0.4,0.5 0.3,1.1 0.3,1.7 -1.7,12.9 -10.6,24 -22.6,28.4 -2.6,0.9 -5.4,1.6 -8.5,2 -0.3,0 -0.6,0.1 -1,0.1 h -0.4 c -0.3,0 -0.7,0.1 -1,0.1 -0.7,0.1 -1.4,0.1 -2.1,0.1 -1.3,0.1 -2.6,0.1 -4,0.1 -2.1,0 -4.2,-0.1 -6.3,-0.1 h -1 c -3,0 -5.9,0 -8.9,0 l -0.2,-1.2 v 1.2 c -3.7,0 -7.4,0 -11.1,0 h -1.2 c -1.2,0 -2.5,0 -3.7,0 -2.7,0 -5.3,0 -8,-0.1 h -1.9 -3.6 c -1.7,0 -3.4,0 -5.2,0 h -0.1 v 0 h -0.2 c -0.4,0 -0.9,-0.1 -1.1,-0.4 -0.4,-0.4 -0.4,-1 -0.4,-1.2 0,-3.7 0,-7.4 0,-11.1 0,-7.3 0,-14.5 0,-21.7 z"
   id="path2"
   style="fill:#00afab" />
	</g>
	<path
   class="st6"
   d="m 289.2,243.2 v 0 c 2.7,0 5.4,0 8.1,0 3.2,0 6.3,0 9.5,0 v -9.9 c -5.6,0 -11.2,0 -16.8,0 h -0.9 c 0,2.8 0,5.6 0,8.4 v 1.4 c 0.1,0.1 0.1,0.1 0.1,0.1 z"
   id="path3"
   style="fill:#00afab" />
	<g
   id="g5">
		<path
   class="st7"
   d="m 618.2,250.5 c 0.6,0 1.2,0 1.8,0 0.2,0 0.8,0 1.3,0.4 0.5,0.5 0.5,1.1 0.5,1.3 0,9.1 0,18.1 0,27.2 h 5 c 0.1,-8.5 0.1,-17.2 0.1,-25.6 0,-6.8 0,-13.9 0,-20.8 -2.7,0 -5.4,0 -8.1,0 h -1.4 c 0,0 0,0 -0.1,0 v 0 c 0,2.7 0,5.3 0,8 0,3.2 0,6.3 0,9.5 0.3,0 0.6,0 0.9,0 z"
   id="path4"
   style="fill:#2066ea" />
		<path
   class="st4"
   d="m 626.9,232.2 1.2,0.1 v 0 z"
   id="path5"
   style="fill:#4c64ab" />
	</g>
	<g
   id="g7">
		<path
   class="st7"
   d="m 574.4,325.9 c 0,2.8 0,5.6 0,8.4 9.5,-0.1 19.2,-0.1 28.5,0 13.4,0.1 27.2,0.2 40.8,-0.3 9.2,-0.6 17.9,-4.8 23.2,-11.3 1.5,-1.5 7,-8.3 11.8,-14.3 3.2,-4 6.2,-7.8 8,-9.9 0.1,-0.1 0.1,-0.1 0.1,-0.3 v -61.6 c 0,0 -0.1,-0.3 -0.1,-0.4 -1.4,-1.7 -2.8,-3.4 -4.3,-5.1 l -2.4,-2.9 c -1.5,-1.8 -3,-3.7 -4.6,-5.4 -2.2,-2.5 -4.4,-5 -6.4,-7.8 -5.2,-8.4 -15.2,-13.9 -26,-14.3 -3.5,0 -7,0 -10.5,0 h -54.4 v 0 h -4.8 c -12.9,-0.1 -26.1,0 -38.8,0.2 l -7.9,0.1 c -3.3,0.2 -6.6,0.1 -9.9,0 -7,-0.2 -14.2,-0.4 -20.8,2.1 -8.5,3.1 -15.5,9.9 -18.9,18.4 l -0.7,1.8 -2.2,-2.6 c -0.5,-0.5 -0.9,-1.1 -1.4,-1.6 l -0.1,-0.1 c -1.1,-1.2 -2.2,-2.5 -3.1,-3.9 -4,-6.5 -10.8,-11.2 -19.1,-13.3 -4.9,-1.3 -10.1,-1.2 -15.1,-1 -2.3,0.1 -4.8,0.1 -7.1,0 h -14.6 c -9.6,0 -19.3,0 -28.9,0 -12.6,0 -25.6,0.1 -38.4,0 v 133.5 c 20.5,0 41.4,0.1 61.6,0.2 22.3,0.1 45.4,0.2 68.1,0.2 h 5 c 2.1,0 4.3,0 6.4,0 0,0 0,0 0.1,0 l 0.1,-0.2 h 32 c 3.1,-0.1 6.4,0 9.5,0 6.5,0.1 13.3,0.3 19.7,-1.2 9.8,-2.4 18.4,-8.4 23.6,-16.5 l 2.2,-3.4 v 4.1 c -0.2,2.8 -0.2,5.6 -0.2,8.4 z M 471,249.4 v 27.1 c 0,9.7 0,19.4 -0.1,29 v 1.2 h -34.4 v -1.2 c 0.1,-12.9 0.1,-26 0,-38.7 0,-9 0,-18 0,-27 -4.3,4.9 -7.7,10 -10,15.3 0.4,10.5 0.3,21.2 0.2,31.6 0,6.1 -0.1,12.5 0,18.8 v 1.2 h -34.2 v -1.2 c 0.1,-6.7 0,-13.6 0,-20.2 0,-9.9 -0.1,-20.2 0.2,-30.2 v -0.2 c 0,0 -0.1,-0.3 -0.2,-0.4 -0.1,-0.1 -0.1,-0.2 -0.2,-0.4 -1.7,-3.4 -3.2,-6.4 -5.1,-9.2 -0.9,-1.4 -2,-2.7 -3.2,-4 -0.3,-0.4 -0.7,-0.8 -1,-1.1 -0.2,13.8 -0.1,27.9 -0.1,41.5 0,8.1 0,16.2 0,24.2 v 1.2 h -34 v -1.2 c 0,-5 0,-10 0,-14.9 v -5 c 0,-7.9 0,-15.9 0,-23.8 0,-13.2 0,-26.8 0.1,-40.2 0.1,-5.2 0.1,-10.3 0.1,-15.4 0,-1.2 0.7,-1.9 1.9,-1.9 15.7,-0.1 31.5,-0.1 47.2,-0.1 10.4,0 20.8,0 31.1,0 2.3,0.1 4.6,0 6.8,0 6.4,-0.2 12.9,-0.3 19,2.5 9.6,4.3 16,14.5 15.9,25.4 0,5.8 0,11.6 0,17.3 z m 45.3,22.4 v 6.9 h 2.8 c 5.2,0 10.3,0 15.5,0 0,-0.7 0,-1.3 0,-2 0,-0.5 0,-1 0,-1.5 0,-0.6 0.2,-1 0.5,-1.2 0.5,-0.4 1,-0.4 1.3,-0.4 2.4,0 4.7,0 7,0 8.5,0 16.9,0.1 25.4,0.1 0.6,0 1.2,0.1 1.6,0.6 0.4,0.5 0.3,1.1 0.3,1.7 -1.7,12.9 -10.6,24 -22.6,28.4 -5.5,2 -11.2,2.4 -16.9,2.4 -2.1,0 -4.1,-0.1 -6.2,-0.1 -3.4,-0.1 -6.9,-0.2 -10.3,0 -5.7,0.1 -11.4,0 -16.9,0 -5.9,0 -11.9,-0.1 -17.8,0 v 0 c -0.5,0 -0.8,-0.1 -1.1,-0.4 -0.4,-0.4 -0.4,-1 -0.4,-1.2 0.1,-10.1 0,-20.4 0,-30.4 0,-10.9 0,-22.3 0.1,-33.4 0.1,-1.7 0,-3.4 0,-5 -0.1,-4 -0.2,-8 1.1,-12 3.2,-10.8 13.2,-18.7 25,-19.8 3.9,-0.3 7.9,-0.2 11.7,-0.2 2.5,0 5,0.1 7.5,0 7.4,0 14.7,0 22.1,0 7.6,0 15.2,0 22.8,0 1.1,0 1.8,0.8 1.8,1.9 -0.1,5 0,10.1 0,15.1 0,2.5 0.1,5 0.1,7.5 0,0.9 0,1.8 0,2.8 0,0.3 0,0.9 -0.5,1.4 -0.5,0.5 -1.2,0.4 -1.5,0.4 -10.1,-0.2 -20.5,-0.2 -30.6,-0.1 -7.1,0 -14.5,0.1 -21.7,0 0,2.9 0,5.7 0,8.5 v 1.4 0.1 c 0.9,0 1.8,0 2.8,0 1.8,0 3.6,0 5.4,0 3.4,0 6.7,0 10,0 0,-0.3 0,-0.6 0,-0.9 0,-0.6 0,-1.3 0,-1.9 0,-0.2 0,-0.8 0.4,-1.3 0.5,-0.5 1.1,-0.5 1.3,-0.5 3.8,0 7.6,0 11.4,0 3.2,0 6.3,0 9.5,0 2,0 3.9,0 5.9,0 1.8,0 3.5,0 5.3,0 1.6,0 2.1,0.5 2.1,2.1 0.1,8.9 0.1,17.9 0.2,26.8 0,0.2 0,0.8 -0.5,1.3 -0.5,0.5 -1.1,0.5 -1.3,0.5 h -3.2 c -4.9,0 -9.8,-0.1 -14.7,0 -10.1,0 -20.8,-0.1 -34.8,-0.2 0.1,0.7 0.1,1.7 0.1,2.6 z m 61.8,-66.3 v -1.2 H 598 c 0,0 29.3,-0.1 44.2,-0.1 7.7,0 15.2,3.1 20.6,8.6 5.2,5.2 7.9,12.1 7.8,19.3 0,3.4 0,10.8 -0.1,18 0,7.9 -0.1,15.3 -0.1,17.2 0,0.1 0,7.7 -0.1,8.6 -0.5,3.4 -1.5,6.8 -3,10 -4,9.1 -11.4,16 -19.7,18.4 -6.9,2 -19.1,2.4 -26.7,2.4 -3.8,0 -6.4,-0.1 -6.7,-0.1 h -34.7 c -0.5,0 -0.8,-0.1 -1.1,-0.4 -0.4,-0.4 -0.4,-1 -0.4,-1.2 0.1,-31.4 0.1,-58.4 0.1,-99.5 z"
   id="path6"
   style="fill:#2066ea" />
		<path
   class="st5"
   d="m 437.7,237.4 -0.2,-0.1 v 0 l 0.2,0.1 c 0,0.1 0,0 0,0 z"
   id="path7"
   style="fill:#4d72ab" />
	</g>
</g></svg>
