<svg version="1.2" xmlns="http://www.w3.org/2000/svg" viewBox="0 0 173 169" width="173" height="169">
	<title>Proyecto nuevo</title>
	<style>
		.s0 { fill: #000000 } 
		.s1 { fill: #000000;stroke: #000000;stroke-miterlimit:100 } 
	</style>
	<path id="Forma 4" class="s0" d="m15 87c0 0 17.1-16 33-16 15.9 0 15 16 15 16 0 0-0.2 16-15 16-14.8 0-33-16-33-16z"/>
	<path id="Forma 4 copy" class="s0" d="m156 87c0 0-17.1-16-33-16-15.9 0-15 16-15 16 0 0 0.3 16 15 16 14.8 0 33-16 33-16z"/>
	<path id="Forma 4 copy 2" class="s0" d="m85.5 158.8c0 0-16.5-17.7-16.5-34.1 0-16.4 16.5-15.4 16.5-15.4 0 0 16.5 0.2 16.5 15.4 0 15.2-16.5 34.1-16.5 34.1z"/>
	<path id="Forma 4 copy 3" class="s0" d="m85.5 15.2c0 0-16.5 17.7-16.5 34.1 0 16.4 16.5 15.4 16.5 15.4 0 0 16.5-0.2 16.5-15.4 0-15.2-16.5-34.1-16.5-34.1z"/>
	<g id="Folder 1">
		<path id="Forma 3" class="s1" d="m74.7 97.8c0 0-15.3 2.6-19.7 19.2 0 0 16.1-3.2 19.7-19.2z"/>
		<path id="Forma 3 copy 5" class="s1" d="m74.7 76c0 0-15.3-2.6-19.7-19.2 0 0 16.1 3.3 19.7 19.2z"/>
		<path id="Forma 3 copy 6" class="s1" d="m96.3 97.6c0 0 15.2 3 19.1 19.7 0 0-16-3.7-19.1-19.7z"/>
		<path id="Forma 3 copy 7" class="s1" d="m96.3 76.3c0 0 15.2-3 19.1-19.7 0 0-16 3.7-19.1 19.7z"/>
	</g>
	<path id="Forma 2" class="s0" d="m85 94c-4.4 0-8-3.6-8-8 0-4.4 3.6-8 8-8 4.4 0 8 3.6 8 8 0 4.4-3.6 8-8 8z"/>
</svg>